<svg xmlns="http://www.w3.org/2000/svg" xmlns:xlink="http://www.w3.org/1999/xlink" id="Layer_1" x="0px" y="0px" viewBox="0 0 30 30" style="enable-background:new 0 0 30 30;" xml:space="preserve"><g>	<g>		<path d="M3.5,4C3.2,4,3,4.2,3,4.5S3.2,5,3.5,5S4,4.8,4,4.5S3.8,4,3.5,4z M30,11.2C30,9.4,28.6,8,27,8c0-1.7-1.4-3-3-3    c0-1.7-1.3-3-2.9-3H2.9C1.3,2,0,3.3,0,5v1.5l0,0l0,0v12.5c0,1.3,0.8,2.5,2,2.9c0,0,0,0,0,0C2,23.6,3.3,25,5,25h0    C5.1,26.7,6.4,28,8,28H27c1.7,0,3-1.4,3-3.2L30,11.2z M29,11.2l0,0.8h-2L27,9C28.1,9,29,10,29,11.2z M24,6c1.1,0,2,1,2,2.1L26,9    h-2C24,9,24,6,24,6z M1,5c0-1.1,0.9-2,1.9-2h18.2C22.1,3,23,3.9,23,5v1H1C1,6,1,5,1,5z M1,18.9V7h22v12c0,1.1-0.9,2-1.9,2H2.9    C1.8,21,1,20.1,1,18.9z M5,24c-1.1,0-1.9-0.9-2-2h18.1c1.6,0,2.9-1.4,2.9-3v-9h2l0,11.8c0,1.2-0.9,2.2-2,2.2C24,24,5,24,5,24z     M27,27H8c-1.1,0-2-0.9-2-2.1H24c1.7,0,3-1.4,3-3.2l0-8.8h2l0,11.9C29,26.1,28.1,27,27,27z M9.5,4C9.2,4,9,4.2,9,4.5S9.2,5,9.5,5    S10,4.8,10,4.5S9.8,4,9.5,4z M6.5,4C6.2,4,6,4.2,6,4.5S6.2,5,6.5,5S7,4.8,7,4.5S6.8,4,6.5,4z"></path>	</g></g></svg>