<svg xmlns="http://www.w3.org/2000/svg" xmlns:xlink="http://www.w3.org/1999/xlink" x="0px" y="0px" width="64px" height="64px" viewBox="0 0 64 64" stroke-width="1"><g stroke-width="1" transform="translate(0.5, 0.5)"><line data-color="color-2" fill="none" stroke="#444444" stroke-width="1" stroke-linecap="square" stroke-miterlimit="10" x1="40" y1="14" x2="62" y2="14" stroke-linejoin="miter"></line> <line data-color="color-2" fill="none" stroke="#444444" stroke-width="1" stroke-linecap="square" stroke-miterlimit="10" x1="40" y1="26" x2="62" y2="26" stroke-linejoin="miter"></line> <line data-color="color-2" fill="none" stroke="#444444" stroke-width="1" stroke-linecap="square" stroke-miterlimit="10" x1="50" y1="38" x2="62" y2="38" stroke-linejoin="miter"></line> <line data-color="color-2" fill="none" stroke="#444444" stroke-width="1" stroke-linecap="square" stroke-miterlimit="10" x1="50" y1="50" x2="62" y2="50" stroke-linejoin="miter"></line> <path fill="none" stroke="#444444" stroke-width="1" stroke-linecap="square" stroke-miterlimit="10" d="M38,55H2v-9.483 c0-3.55,2.328-6.669,5.733-7.677C10.92,36.896,15.208,36,20,36c4.713,0,9.027,0.911,12.25,1.864c3.411,1.008,5.75,4.125,5.75,7.682 V55z" stroke-linejoin="miter"></path> <path fill="none" stroke="#444444" stroke-width="1" stroke-linecap="square" stroke-miterlimit="10" d="M10,18 c0-5.523,4.477-10,10-10s10,4.477,10,10s-4.477,12-10,12S10,23.523,10,18z" stroke-linejoin="miter"></path></g></svg>